<?xml version="1.0" standalone="no"?>
<!DOCTYPE svg PUBLIC "-//W3C//DTD SVG 20010904//EN"
 "http://www.w3.org/TR/2001/REC-SVG-20010904/DTD/svg10.dtd">
<svg version="1.0" xmlns="http://www.w3.org/2000/svg"
 width="4000.000000pt" height="4000.000000pt" viewBox="0 0 4000.000000 4000.000000"
 preserveAspectRatio="xMidYMid meet">

<g transform="translate(0.000000,4000.000000) scale(0.100000,-0.100000)"
fill="#000000" stroke="none">
<path d="M19920 32015 c-195 -7 -402 -18 -460 -24 -58 -6 -157 -16 -220 -21
-258 -23 -324 -30 -515 -60 -110 -18 -229 -36 -265 -41 -226 -33 -801 -158
-1030 -225 -85 -25 -225 -66 -310 -90 -85 -25 -216 -67 -290 -94 -74 -27 -223
-80 -330 -119 -107 -38 -258 -98 -335 -132 -77 -33 -201 -87 -275 -119 -188
-80 -795 -387 -1030 -521 -107 -61 -215 -122 -240 -136 -39 -22 -425 -264
-545 -342 -162 -104 -625 -441 -840 -610 -241 -190 -557 -458 -735 -625 -234
-219 -628 -622 -795 -815 -115 -132 -375 -445 -375 -452 0 -3 28 -25 61 -48
35 -24 59 -36 56 -27 -4 10 6 28 26 48 18 18 50 55 72 83 22 27 64 79 94 115
29 36 68 82 85 103 81 100 139 167 186 217 19 20 78 83 130 140 52 58 208 216
345 353 301 300 309 307 318 307 4 0 20 12 36 28 28 27 144 132 230 207 25 23
87 74 136 115 50 41 119 98 155 128 36 29 72 59 80 65 8 7 40 32 70 57 30 25
63 52 73 60 11 8 25 21 32 28 8 6 17 12 22 12 4 0 24 14 43 31 19 17 67 53
105 80 39 28 81 59 95 69 22 17 173 123 258 182 18 13 39 29 47 36 7 6 16 12
20 12 3 0 11 5 18 11 7 5 82 55 167 111 85 55 174 113 197 129 23 16 46 29 52
29 6 0 11 4 11 9 0 5 9 13 21 16 11 4 41 21 66 37 25 17 66 42 92 55 51 26
150 86 168 102 7 6 19 11 27 11 8 0 20 8 25 18 6 9 11 14 11 9 0 -4 18 4 40
18 22 14 43 25 48 25 4 0 30 14 57 31 126 80 753 386 779 380 5 -1 12 2 15 7
3 6 35 22 71 37 80 33 125 53 212 94 36 17 71 31 77 31 6 0 19 4 29 10 25 14
241 100 252 100 5 0 21 5 37 12 15 7 33 13 38 13 6 1 17 5 25 9 33 14 188 68
230 80 25 7 62 21 84 30 21 9 47 16 58 16 10 0 29 7 41 15 13 8 48 20 78 26
65 13 83 17 87 19 1 2 5 3 10 5 4 1 14 4 22 7 8 4 67 20 130 37 63 17 147 40
185 51 39 10 86 21 105 24 19 2 35 5 35 6 0 1 14 4 30 6 17 2 53 9 80 15 28 7
61 13 75 14 14 2 32 5 40 9 8 3 42 10 75 16 33 5 83 14 110 19 28 6 68 13 90
16 22 4 65 11 95 15 30 5 100 14 155 20 55 5 141 17 190 25 89 14 212 30 310
40 145 14 299 27 370 31 44 3 100 7 125 10 234 25 1030 37 1285 20 72 -5 173
-10 225 -11 128 -3 268 -15 640 -55 107 -11 220 -25 250 -29 30 -5 58 -7 63
-4 4 2 7 -1 7 -7 0 -6 4 -9 9 -5 5 3 12 2 15 -3 2 -4 19 -9 38 -10 18 -1 96
-13 173 -26 77 -13 147 -25 155 -25 19 -1 104 -17 155 -29 22 -6 65 -15 95
-21 30 -6 78 -18 105 -25 53 -15 119 -27 148 -27 9 0 17 -5 17 -10 0 -6 4 -8
9 -5 5 3 31 -1 57 -9 27 -8 83 -23 124 -34 41 -10 101 -26 133 -35 32 -9 67
-16 77 -16 11 0 20 -4 20 -10 0 -5 8 -10 18 -10 9 0 37 -6 62 -14 25 -9 86
-27 135 -41 129 -38 278 -83 365 -112 41 -14 80 -26 85 -27 6 -2 27 -10 49
-19 21 -9 41 -17 43 -17 3 0 19 -6 36 -14 50 -22 216 -86 224 -86 10 0 155
-56 209 -81 22 -11 45 -19 51 -19 6 0 16 -7 23 -15 7 -8 18 -14 24 -14 6 1 33
-7 59 -19 27 -12 54 -19 59 -15 6 3 8 2 5 -4 -4 -5 12 -16 33 -23 22 -7 40
-17 40 -22 0 -4 9 -8 19 -8 11 0 40 -11 65 -24 25 -14 59 -27 76 -31 16 -4 30
-10 30 -15 0 -4 18 -10 39 -14 22 -3 46 -12 53 -19 7 -7 29 -19 48 -27 19 -7
42 -19 50 -25 8 -7 32 -18 53 -26 20 -7 37 -16 37 -19 0 -3 9 -6 20 -7 11 -1
32 -11 46 -22 15 -12 33 -21 40 -21 8 0 14 -4 14 -9 0 -5 10 -13 23 -16 36
-11 77 -29 77 -36 0 -3 32 -20 70 -39 39 -19 70 -37 70 -42 0 -4 8 -8 18 -9 9
0 40 -13 67 -30 28 -16 75 -41 105 -56 30 -15 57 -30 60 -33 3 -4 25 -18 50
-32 25 -14 61 -34 80 -45 19 -11 64 -37 100 -58 36 -21 81 -47 100 -58 19 -11
48 -21 64 -23 36 -5 56 -21 56 -45 0 -11 5 -19 10 -19 6 0 10 5 10 10 0 13 27
13 35 0 4 -6 -1 -7 -12 -3 -17 6 -17 5 1 -15 11 -13 31 -22 48 -22 18 0 28 -5
28 -15 0 -8 6 -12 15 -9 12 5 86 -39 123 -73 7 -7 18 -13 23 -13 5 0 23 -13
38 -29 16 -16 32 -27 35 -24 7 7 84 -45 95 -64 4 -8 15 -15 23 -17 19 -2 86
-46 149 -98 26 -21 52 -38 58 -38 7 0 24 -12 39 -26 15 -14 42 -32 60 -40 17
-8 32 -19 32 -24 0 -6 6 -10 13 -10 7 0 18 -9 25 -20 7 -11 19 -20 26 -20 8 0
16 -3 18 -7 5 -11 120 -88 132 -88 6 -1 10 -6 8 -13 -1 -7 7 -12 18 -12 11 0
20 -4 20 -10 0 -5 11 -12 25 -16 13 -3 27 -15 30 -25 4 -11 10 -17 14 -15 4 3
25 -13 48 -34 23 -21 44 -36 47 -33 3 3 12 -2 21 -11 9 -9 23 -16 31 -16 8 0
14 -4 14 -8 0 -5 15 -14 33 -21 18 -7 40 -25 50 -40 9 -14 25 -37 36 -51 10
-14 22 -42 26 -62 5 -31 3 -38 -10 -38 -9 0 -15 -5 -13 -11 2 -7 -15 -32 -39
-57 -23 -24 -40 -48 -37 -53 10 -16 -25 -103 -56 -141 -31 -38 -178 -153 -280
-219 -32 -21 -278 -259 -580 -560 -556 -555 -719 -714 -725 -707 -4 4 21 35
105 128 27 30 60 67 72 81 108 125 141 163 198 224 36 38 106 115 155 170 101
113 107 119 346 378 96 104 207 228 247 275 81 95 147 219 138 255 -11 45
-145 168 -286 263 -41 28 -149 97 -240 154 -91 56 -187 117 -215 135 -27 18
-111 70 -185 115 -74 46 -151 93 -171 106 -19 13 -38 24 -41 24 -3 0 -50 27
-104 60 -54 33 -104 60 -110 60 -7 0 -14 4 -16 8 -3 7 -118 76 -158 95 -8 4
-33 18 -55 32 -22 14 -94 53 -160 86 -66 34 -132 70 -147 80 -14 11 -32 19
-39 19 -7 0 -20 6 -28 13 -9 7 -50 28 -91 46 -41 19 -127 58 -190 89 -165 79
-228 107 -290 132 -30 13 -73 31 -96 41 -22 11 -47 19 -55 19 -8 0 -23 7 -33
15 -11 8 -26 15 -33 15 -7 0 -32 8 -56 19 -93 40 -268 110 -292 116 -5 1 -21
7 -35 12 -14 6 -28 9 -32 6 -5 -2 -8 1 -8 7 0 6 -4 9 -8 6 -5 -3 -25 4 -45 14
-20 11 -46 20 -56 20 -11 0 -23 5 -26 10 -3 6 -15 10 -26 10 -10 0 -38 9 -62
19 -48 22 -131 50 -167 58 -14 2 -77 20 -140 39 -63 19 -140 42 -170 50 -30 9
-62 19 -70 22 -8 3 -18 6 -22 7 -5 2 -9 3 -10 5 -2 1 -10 3 -18 5 -8 2 -43 10
-77 19 -106 27 -179 45 -204 50 -13 3 -78 19 -144 36 -66 17 -133 33 -150 36
-16 3 -59 12 -95 20 -36 9 -81 17 -100 19 -19 2 -87 13 -150 25 -135 25 -132
25 -280 46 -63 9 -127 16 -142 15 -15 -1 -29 3 -33 9 -3 5 -23 10 -43 10 -20
0 -55 4 -77 9 -22 5 -78 12 -125 15 -47 4 -98 8 -115 10 -16 2 -73 7 -125 11
-52 3 -111 8 -130 10 -181 20 -976 27 -1270 12 -264 -14 -292 -16 -400 -27
-58 -6 -123 -12 -145 -15 -22 -2 -71 -8 -110 -14 -38 -5 -117 -15 -175 -21
-58 -7 -154 -21 -215 -32 -60 -10 -126 -21 -145 -23 -19 -3 -80 -14 -135 -25
-55 -11 -109 -22 -120 -24 -123 -22 -247 -47 -275 -56 -19 -6 -78 -20 -130
-31 -52 -11 -113 -26 -135 -34 -42 -13 -76 -23 -185 -50 -125 -31 -638 -197
-725 -235 -27 -12 -77 -31 -110 -42 -32 -11 -77 -28 -100 -38 -90 -42 -291
-123 -302 -123 -7 0 -13 -4 -13 -9 0 -5 -4 -6 -10 -3 -5 3 -10 3 -10 -2 0 -8
-36 -26 -78 -38 -12 -3 -20 -10 -18 -13 2 -4 -22 -16 -55 -26 -32 -11 -59 -23
-59 -28 0 -4 -6 -8 -14 -8 -8 0 -16 -5 -18 -11 -2 -5 -10 -11 -18 -13 -8 -1
-26 -8 -40 -16 -14 -8 -29 -14 -35 -15 -20 -1 -85 -34 -85 -43 0 -4 -23 -16
-51 -26 -28 -10 -53 -24 -56 -32 -2 -7 -10 -11 -18 -8 -7 3 -19 -1 -27 -8 -18
-17 -39 -29 -115 -69 -34 -18 -60 -36 -57 -40 2 -4 -6 -5 -18 -1 -12 3 -19 1
-15 -5 3 -5 -11 -17 -32 -26 -21 -10 -48 -26 -61 -37 -12 -11 -27 -17 -31 -14
-5 3 -9 -2 -9 -10 0 -9 -9 -16 -20 -16 -10 0 -24 -9 -30 -20 -6 -11 -15 -18
-21 -15 -5 4 -12 -1 -15 -9 -3 -9 -12 -16 -20 -16 -8 0 -14 -4 -14 -9 0 -5
-11 -12 -25 -15 -14 -4 -25 -13 -25 -20 0 -9 -7 -12 -18 -9 -10 2 -24 -3 -31
-11 -8 -9 -20 -16 -27 -16 -8 0 -14 -5 -14 -11 0 -5 -4 -7 -10 -4 -5 3 -10 -1
-10 -9 0 -10 -6 -13 -17 -9 -11 4 -14 3 -9 -5 5 -8 0 -12 -13 -12 -12 0 -21
-7 -21 -15 0 -8 -9 -15 -20 -15 -11 0 -23 -7 -26 -15 -4 -8 -12 -15 -20 -15
-8 0 -14 -4 -14 -10 0 -5 -11 -12 -25 -16 -14 -3 -30 -15 -36 -25 -5 -11 -17
-19 -26 -19 -9 0 -22 -8 -29 -17 -7 -10 -18 -18 -26 -18 -7 -1 -12 -6 -11 -13
2 -7 -9 -12 -26 -12 -20 0 -30 -6 -34 -19 -2 -10 -25 -29 -50 -41 -26 -13 -44
-27 -41 -32 3 -4 0 -8 -6 -8 -6 0 -36 -20 -68 -45 -31 -25 -61 -45 -65 -45 -4
0 -20 -11 -35 -25 -15 -14 -32 -25 -38 -25 -7 0 -14 -7 -18 -15 -3 -8 -13 -15
-21 -15 -9 0 -14 -4 -11 -9 4 -5 -7 -15 -24 -23 -16 -7 -30 -16 -30 -20 0 -4
-12 -14 -27 -22 -16 -8 -40 -26 -55 -40 -15 -14 -32 -26 -38 -26 -5 0 -10 -6
-10 -14 0 -8 -18 -23 -40 -34 -22 -10 -37 -22 -34 -25 3 -3 -7 -12 -23 -21
-15 -8 -51 -36 -80 -63 -71 -65 -81 -73 -93 -73 -5 0 -10 -7 -10 -15 0 -8 -6
-15 -13 -15 -7 0 -36 -22 -66 -50 -30 -27 -58 -50 -63 -50 -5 0 -7 -4 -4 -8 2
-4 -9 -14 -25 -21 -17 -7 -28 -15 -26 -18 6 -5 -41 -53 -51 -53 -4 0 -18 -13
-32 -30 -17 -21 -27 -26 -32 -17 -5 8 -8 5 -8 -8 -1 -11 -12 -29 -26 -40 -51
-40 -79 -68 -76 -76 1 -5 -3 -9 -8 -9 -11 0 -24 -9 -59 -41 -10 -8 -25 -18
-34 -22 -9 -3 -17 -16 -17 -27 0 -12 -4 -19 -8 -16 -5 3 -19 -6 -30 -19 -12
-14 -25 -25 -30 -25 -4 0 -19 -18 -32 -40 -14 -22 -31 -40 -38 -40 -7 0 -22
-16 -33 -35 -12 -19 -25 -35 -30 -35 -5 0 -9 -8 -9 -17 0 -15 -2 -16 -10 -3
-8 13 -10 12 -10 -3 0 -10 -4 -16 -9 -13 -4 3 -13 -6 -19 -19 -7 -14 -17 -25
-24 -26 -7 0 -4 -4 7 -9 19 -8 19 -9 -2 -9 -24 -1 -48 -35 -37 -52 4 -7 0 -9
-12 -5 -11 3 -26 1 -34 -4 -12 -8 -12 -10 5 -10 19 -1 19 -1 2 -11 -9 -6 -15
-14 -12 -20 4 -5 -3 -9 -14 -9 -14 0 -23 -9 -27 -25 -3 -14 -10 -22 -15 -19
-9 5 -13 -9 -10 -33 1 -7 -5 -13 -14 -13 -8 0 -15 -9 -15 -21 0 -13 -4 -18
-12 -13 -7 5 -9 2 -5 -9 3 -9 1 -17 -5 -19 -8 -3 -7 -11 1 -27 17 -31 1 -47
-28 -30 -11 8 -22 18 -24 24 -2 5 -3 2 -2 -7 2 -9 -1 -19 -6 -22 -5 -2 -4 -3
3 -2 15 3 48 -41 48 -64 0 -8 -10 0 -21 18 -25 38 -32 41 -19 7 6 -15 6 -26 0
-30 -6 -4 -10 1 -10 9 0 9 -4 16 -8 16 -4 0 -8 -13 -7 -30 0 -29 0 -29 25 -13
21 14 23 14 12 1 -7 -8 -10 -23 -6 -32 3 -9 1 -16 -6 -16 -6 0 -9 4 -6 9 3 5
-5 9 -18 9 -16 0 -26 -8 -29 -20 -4 -16 -3 -17 9 -7 8 6 14 8 14 3 0 -5 -19
-26 -42 -48 -24 -21 -35 -36 -25 -32 9 3 17 1 17 -4 0 -6 -6 -10 -14 -10 -17
0 -41 -54 -31 -70 6 -9 10 -9 15 1 7 10 14 10 32 1 l23 -11 -24 2 c-16 1 -25
-4 -27 -16 -1 -11 -6 -22 -10 -25 -4 -4 -4 1 -1 11 4 11 1 17 -7 17 -8 0 -17
6 -19 13 -3 6 -6 2 -6 -11 -1 -13 3 -20 9 -17 6 4 10 -5 10 -19 0 -14 -4 -26
-10 -26 -5 0 -10 -18 -10 -40 0 -22 -4 -40 -10 -40 -5 0 -10 -21 -10 -46 0
-37 -3 -45 -15 -40 -9 3 -15 0 -15 -9 0 -9 -6 -12 -15 -9 -11 4 -15 0 -15 -16
0 -16 4 -20 15 -16 9 3 15 0 15 -9 0 -9 6 -12 18 -8 9 3 14 3 10 -2 -4 -4 0
-14 9 -20 15 -11 15 -14 2 -28 -11 -10 -21 -12 -30 -6 -13 8 -6 13 14 10 11
-2 8 17 -5 25 -6 4 -14 2 -16 -4 -2 -7 -8 -12 -14 -12 -6 0 -7 7 -4 16 6 14 4
15 -9 4 -10 -8 -12 -16 -6 -20 6 -3 8 -22 4 -42 -4 -27 -11 -38 -27 -41 -20
-4 -20 -4 2 -6 12 0 22 -5 22 -11 0 -5 10 -10 23 -11 17 -1 15 -3 -10 -10 -30
-9 -33 -13 -33 -49 0 -29 4 -39 18 -42 14 -3 13 -8 -12 -31 -16 -14 -32 -24
-37 -21 -5 3 -9 0 -9 -5 0 -6 5 -11 10 -11 6 0 9 -10 9 -22 -1 -17 -2 -19 -6
-5 -2 9 -11 17 -19 17 -18 0 -18 -11 1 -36 19 -25 19 -44 0 -44 -11 0 -15 -11
-15 -40 0 -22 -4 -40 -10 -40 -5 0 -10 -18 -10 -40 0 -22 -4 -40 -10 -40 -5 0
-10 -7 -10 -15 0 -8 -6 -15 -12 -15 -9 0 -8 -4 2 -10 10 -6 11 -10 3 -10 -7 0
-13 -7 -13 -15 0 -8 3 -15 8 -15 4 0 8 -20 9 -45 1 -37 -1 -44 -12 -35 -10 9
-13 7 -10 -7 2 -10 4 -21 4 -25 1 -4 8 -5 17 -1 12 4 15 2 12 -8 -3 -8 -11
-13 -17 -11 -6 1 -11 -5 -11 -13 0 -8 12 -17 28 -21 46 -10 53 -14 47 -24 -3
-6 -15 -6 -29 0 -13 5 -27 6 -32 2 -4 -4 -4 -1 0 5 5 9 2 11 -10 6 -15 -6 -15
-7 0 -15 14 -8 15 -13 5 -24 -9 -11 55 -81 353 -382 445 -449 679 -691 1048
-1087 41 -44 102 -109 136 -145 348 -371 574 -631 574 -658 0 -5 -39 -71 -86
-148 -335 -538 -568 -1044 -714 -1549 -104 -361 -165 -702 -201 -1140 -15
-181 -15 -759 0 -990 13 -202 54 -587 76 -714 8 -46 15 -107 15 -135 0 -101
80 -441 165 -706 185 -572 516 -1260 872 -1815 552 -858 1425 -1749 2165
-2209 776 -483 1913 -838 2983 -932 265 -24 786 -24 1035 0 1233 115 2330 517
3255 1191 236 172 552 448 696 606 42 46 100 111 130 144 273 301 558 710 783
1122 237 437 410 838 497 1158 33 124 38 151 47 290 10 140 25 186 76 234 14
12 23 27 20 32 -3 5 0 9 5 9 16 0 13 52 -5 91 -26 56 -30 62 -50 73 -10 6 -21
13 -24 16 -12 14 -82 49 -136 70 -158 59 -198 64 -889 95 -527 24 -2911 24
-4190 0 -408 -8 -445 -13 -594 -81 -42 -20 -96 -38 -121 -41 -44 -5 -46 -4
-65 33 -20 38 -20 64 -22 1859 -2 1989 -4 1904 54 1942 39 26 124 39 258 41
66 1 840 4 1720 6 1463 4 2016 8 2615 20 118 2 332 5 475 7 l260 3 -340 6
c-187 3 -1364 5 -2615 5 -1691 -1 -2287 -4 -2323 -13 -59 -14 -91 -37 -112
-81 -28 -59 -64 -230 -75 -360 -16 -176 -8 -3424 8 -3501 6 -30 26 -92 44
-138 45 -113 68 -129 208 -141 59 -6 889 -12 1880 -16 976 -3 1809 -7 1850 -9
41 -2 221 -7 400 -10 299 -6 388 -9 570 -21 36 -2 124 -7 195 -10 72 -3 149
-8 173 -11 41 -5 42 -6 42 -42 0 -46 -47 -231 -95 -375 -115 -345 -420 -938
-674 -1307 -155 -226 -228 -319 -414 -527 -529 -592 -1278 -1084 -2106 -1384
-470 -170 -969 -281 -1506 -335 -210 -21 -732 -24 -945 -6 -967 85 -2002 409
-2699 846 -457 287 -957 736 -1404 1263 -157 184 -388 490 -481 635 -33 51
-83 129 -112 173 -29 44 -76 123 -104 175 -29 52 -73 131 -97 175 -237 428
-494 1052 -588 1424 -17 67 -93 417 -100 461 -31 189 -60 458 -76 710 -13 205
-6 796 10 945 6 50 13 115 16 145 48 449 183 957 365 1375 47 108 204 423 248
500 9 17 37 66 62 110 93 170 327 510 518 755 345 442 799 890 1227 1211 967
726 2033 1095 3280 1133 287 9 744 -20 1005 -63 799 -134 1512 -393 2540 -924
151 -78 301 -152 334 -164 149 -57 226 -16 559 302 111 106 783 775 1493 1486
1259 1263 1350 1357 1927 1999 42 47 89 108 104 136 25 48 26 54 14 95 -26 86
-103 144 -641 486 -877 557 -1437 869 -2110 1177 -579 265 -1349 552 -1852
691 -112 31 -264 74 -338 95 -74 21 -220 56 -325 79 -104 22 -264 56 -355 75
-145 31 -489 86 -810 131 -206 29 -799 74 -1045 80 -137 3 -297 7 -355 9 -58
2 -265 -2 -460 -9z m-6648 -4209 c10 6 11 4 0 -7 -10 -11 -15 -10 -30 6 -15
17 -15 18 0 6 9 -7 23 -9 30 -5z m-77 -196 c-3 -5 -12 -10 -18 -10 -7 0 -6 4
3 10 19 12 23 12 15 0z m-125 -130 c0 -5 -7 -10 -15 -10 -8 0 -15 5 -15 10 0
6 7 10 15 10 8 0 15 -4 15 -10z m-90 -320 c0 -5 -4 -10 -10 -10 -5 0 -10 5
-10 10 0 6 5 10 10 10 6 0 10 -4 10 -10z m-25 -110 c3 -5 -1 -10 -9 -10 -9 0
-16 5 -16 10 0 6 4 10 9 10 6 0 13 -4 16 -10z m15 -49 c0 -4 -11 -6 -25 -3
-14 2 -25 6 -25 8 0 2 11 4 25 4 14 0 25 -4 25 -9z m5 -211 c3 -5 1 -10 -4
-10 -6 0 -11 5 -11 10 0 6 2 10 4 10 3 0 8 -4 11 -10z m-55 -74 c0 -2 -7 -7
-16 -10 -8 -3 -12 -2 -9 4 6 10 25 14 25 6z m-3 -142 c-3 -3 -12 -4 -19 -1 -8
3 -5 6 6 6 11 1 17 -2 13 -5z m-93 -325 c-2 -4 0 -10 6 -14 5 -3 10 -1 10 4 0
6 5 11 11 11 8 0 8 -4 0 -14 -8 -9 -8 -16 -2 -20 9 -6 27 31 23 47 -4 15 8 6
19 -14 8 -15 8 -19 0 -15 -17 11 -13 -10 4 -24 8 -7 15 -21 15 -31 0 -13 7
-19 21 -19 16 0 20 -5 16 -20 -4 -18 3 -24 24 -22 3 1 6 -6 6 -14 0 -22 -13
-17 -40 15 -14 17 -27 28 -30 25 -3 -3 -22 15 -43 40 -20 25 -42 42 -47 39 -6
-3 -7 -1 -3 6 4 6 0 14 -9 17 -12 5 -13 9 -4 21 10 11 14 11 20 1 4 -6 6 -15
3 -19z m131 -69 c3 -5 1 -10 -4 -10 -6 0 -11 5 -11 10 0 6 2 10 4 10 3 0 8 -4
11 -10z m42 -115 c0 -8 -4 -12 -9 -9 -4 3 -8 9 -8 15 0 5 4 9 8 9 5 0 9 -7 9
-15z m38 -3 c-3 -3 -11 0 -18 7 -9 10 -8 11 6 5 10 -3 15 -9 12 -12z m-1 -28
c5 -14 4 -15 -9 -4 -17 14 -19 20 -6 20 5 0 12 -7 15 -16z"/>
<path d="M26255 30150 c28 -12 37 -12 30 0 -3 6 -16 10 -28 9 -21 0 -21 -1 -2
-9z"/>
<path d="M13185 27760 c-3 -5 -1 -10 4 -10 6 0 11 5 11 10 0 6 -2 10 -4 10 -3
0 -8 -4 -11 -10z"/>
<path d="M12920 27322 c0 -10 5 -23 12 -30 21 -21 27 -13 12 18 -18 34 -24 38
-24 12z"/>
<path d="M12910 27240 c0 -11 5 -20 10 -20 6 0 10 9 10 20 0 11 -4 20 -10 20
-5 0 -10 -9 -10 -20z"/>
<path d="M12865 27130 c-3 -5 -1 -10 4 -10 6 0 11 5 11 10 0 6 -2 10 -4 10 -3
0 -8 -4 -11 -10z"/>
<path d="M12890 27120 c0 -5 5 -10 10 -10 6 0 10 5 10 10 0 6 -4 10 -10 10 -5
0 -10 -4 -10 -10z"/>
<path d="M12838 26973 c7 -3 16 -2 19 1 4 3 -2 6 -13 5 -11 0 -14 -3 -6 -6z"/>
<path d="M12888 26973 c6 -2 18 -2 25 0 6 3 1 5 -13 5 -14 0 -19 -2 -12 -5z"/>
<path d="M12872 26910 c0 -14 2 -19 5 -12 2 6 2 18 0 25 -3 6 -5 1 -5 -13z"/>
<path d="M12860 26850 c0 -5 5 -10 11 -10 5 0 7 5 4 10 -3 6 -8 10 -11 10 -2
0 -4 -4 -4 -10z"/>
<path d="M12772 26618 c2 -6 11 -13 19 -16 12 -3 12 -2 0 6 -11 8 -11 10 0 15
10 4 8 6 -4 6 -10 1 -17 -4 -15 -11z"/>
<path d="M12760 26586 c0 -2 7 -6 15 -10 8 -3 15 -1 15 4 0 6 -7 10 -15 10 -8
0 -15 -2 -15 -4z"/>
<path d="M12603 26453 c-9 -3 -9 -10 3 -28 17 -27 46 -42 38 -20 -3 7 -12 16
-21 19 -8 4 -13 13 -9 21 3 8 4 15 3 14 -1 0 -8 -3 -14 -6z"/>
<path d="M12715 26380 c-3 -6 1 -7 9 -4 18 7 21 14 7 14 -6 0 -13 -4 -16 -10z"/>
<path d="M12710 26320 c0 -5 5 -10 11 -10 5 0 7 5 4 10 -3 6 -8 10 -11 10 -2
0 -4 -4 -4 -10z"/>
<path d="M12742 26284 c10 -10 20 -16 22 -13 3 3 -5 11 -17 18 -21 13 -21 12
-5 -5z"/>
<path d="M31475 22319 c-27 -27 -57 -52 -67 -55 -10 -3 -18 -10 -18 -15 0 -5
-9 -9 -20 -9 -10 0 -24 -9 -30 -20 -6 -11 -16 -17 -22 -14 -6 4 -8 3 -5 -3 8
-13 -27 -55 -37 -45 -4 4 -5 -5 -1 -21 5 -18 3 -27 -5 -27 -9 0 -9 -4 1 -17
10 -11 10 -14 2 -9 -16 9 -17 -6 -2 -21 7 -7 6 -12 -5 -16 -9 -4 -15 -3 -15 1
3 17 -2 32 -9 32 -9 0 -10 -7 -13 -55 -1 -13 -7 -30 -15 -36 -10 -8 -11 -15
-1 -29 9 -16 7 -22 -12 -40 -14 -11 -18 -20 -11 -20 7 0 11 -3 7 -6 -3 -3 -2
-17 3 -30 6 -14 6 -26 0 -29 -5 -3 -8 -32 -7 -65 1 -33 -1 -60 -5 -60 -4 0 -5
-8 -4 -17 16 -86 17 -113 4 -113 -9 0 -9 -3 -2 -8 12 -8 13 -150 1 -169 -4 -6
-1 -14 5 -16 10 -4 10 -6 0 -6 -7 -1 -10 -6 -7 -12 11 -17 12 -89 2 -89 -5 0
-7 -6 -4 -12 2 -7 10 -12 17 -10 10 2 11 0 3 -10 -6 -7 -10 -28 -9 -45 1 -18
-3 -35 -8 -38 -8 -3 -8 -7 0 -10 7 -4 9 -20 5 -43 -7 -39 -7 -60 2 -104 4 -20
1 -31 -11 -38 -15 -8 -15 -9 3 -10 11 0 16 -4 10 -8 -12 -9 -14 -205 -2 -213
5 -4 4 -16 -2 -28 -9 -16 -9 -21 1 -21 9 0 9 -3 -2 -10 -13 -9 -13 -10 0 -10
10 0 11 -3 4 -8 -7 -4 -13 -30 -15 -59 -2 -28 -1 -49 4 -46 4 2 7 -1 7 -6 0
-6 -4 -11 -9 -11 -5 0 -7 -21 -4 -47 3 -32 1 -44 -5 -34 -6 8 -12 9 -16 3 -3
-6 3 -17 15 -25 11 -8 16 -18 11 -21 -6 -3 -9 -17 -7 -31 1 -14 -1 -25 -5 -25
-3 0 -6 -21 -5 -47 2 -27 -2 -51 -9 -55 -8 -5 -8 -10 1 -19 9 -9 9 -17 1 -33
-8 -15 -8 -21 1 -24 6 -2 8 -9 4 -15 -13 -21 -13 -47 0 -47 8 0 8 -3 1 -8 -17
-11 -25 -42 -11 -42 7 0 8 -3 2 -8 -5 -4 -11 -32 -13 -62 -2 -30 -5 -75 -8
-100 -2 -25 -6 -72 -8 -105 -2 -33 -4 -60 -5 -60 -5 0 -13 -130 -14 -247 -1
-69 -5 -124 -9 -122 -4 2 -9 0 -13 -6 -3 -5 1 -10 10 -10 12 0 15 -5 11 -16
-3 -9 -6 -18 -6 -20 0 -3 -4 -2 -10 1 -5 3 -10 -3 -10 -14 0 -12 7 -21 15 -21
13 0 15 -11 11 -67 -2 -38 -5 -69 -6 -70 -5 -8 -3 -61 4 -71 4 -7 2 -12 -3
-12 -6 0 -10 -10 -8 -22 1 -14 -3 -22 -10 -21 -18 4 -16 -32 1 -46 16 -13 12
-102 -7 -161 -6 -19 -10 -38 -9 -42 1 -4 -3 -20 -10 -35 -6 -15 -13 -39 -15
-53 -2 -14 -8 -36 -13 -50 -5 -14 -12 -44 -15 -67 -3 -23 -13 -65 -21 -95 -8
-29 -15 -59 -16 -65 -1 -7 -4 -13 -8 -13 -4 0 -13 -33 -20 -72 -7 -40 -16 -77
-20 -83 -7 -9 -23 -68 -25 -90 -1 -5 -4 -19 -8 -30 -3 -11 -9 -33 -11 -50 -16
-90 -82 -372 -103 -438 -8 -26 -16 -58 -18 -70 -2 -12 -17 -60 -33 -107 -16
-47 -39 -119 -52 -160 -28 -94 -55 -170 -120 -340 -50 -130 -69 -180 -123
-320 -13 -36 -45 -114 -71 -175 -26 -60 -63 -148 -83 -195 -20 -47 -51 -118
-69 -157 -19 -40 -36 -84 -40 -98 -3 -14 -10 -25 -15 -25 -5 0 -9 -8 -9 -18 0
-10 -5 -23 -12 -30 -7 -7 -9 -12 -4 -12 4 0 -2 -13 -13 -29 -12 -16 -21 -33
-21 -37 0 -16 -34 -84 -43 -84 -4 0 -6 -4 -2 -10 5 -8 -10 -45 -25 -60 -3 -3
-12 -21 -21 -40 -37 -84 -62 -130 -70 -130 -5 0 -9 -6 -9 -14 0 -17 -52 -120
-62 -124 -5 -2 -8 -10 -8 -18 0 -8 -4 -14 -10 -14 -5 0 -10 -9 -10 -19 0 -11
-6 -26 -13 -33 -7 -7 -30 -47 -51 -88 -21 -41 -43 -80 -48 -87 -5 -6 -25 -42
-44 -80 -19 -37 -41 -75 -49 -84 -8 -8 -15 -21 -15 -27 0 -7 -3 -12 -8 -12 -4
0 -23 -28 -42 -62 -18 -35 -51 -88 -72 -119 -21 -31 -38 -60 -38 -65 -1 -5
-14 -25 -30 -44 -17 -19 -30 -37 -30 -41 0 -8 -118 -189 -129 -199 -11 -9 -91
-129 -91 -135 0 -4 -27 -44 -60 -91 -33 -46 -60 -87 -60 -90 0 -2 -5 -10 -10
-17 -22 -26 -79 -107 -155 -217 -43 -63 -93 -130 -111 -147 -18 -18 -35 -41
-38 -51 -5 -14 -14 -18 -39 -15 l-32 4 33 -21 c17 -12 32 -26 32 -31 0 -5 7
-9 16 -9 8 0 13 -4 9 -9 -3 -5 -17 -8 -31 -5 -25 5 -54 -14 -54 -35 0 -6 -4
-11 -10 -11 -5 0 -10 -4 -10 -10 0 -5 -24 -33 -54 -62 -29 -29 -70 -77 -90
-107 -20 -29 -36 -50 -36 -46 0 4 -12 -9 -26 -30 -14 -21 -31 -43 -37 -50 -7
-6 -23 -26 -37 -45 -14 -18 -32 -40 -40 -49 -9 -9 -29 -35 -45 -56 -17 -22
-32 -42 -35 -45 -3 -3 -22 -26 -42 -52 -21 -25 -55 -64 -75 -87 -21 -22 -47
-53 -58 -68 -11 -15 -40 -49 -65 -74 -25 -26 -74 -79 -110 -119 -102 -113
-150 -162 -150 -153 0 4 -8 -4 -17 -17 -10 -14 -28 -34 -41 -44 -13 -11 -29
-25 -36 -33 -24 -29 -190 -193 -306 -303 -68 -63 -135 -127 -150 -142 -15 -16
-32 -28 -39 -28 -6 0 -11 -4 -11 -8 0 -4 -23 -26 -52 -47 -29 -22 -64 -51 -78
-65 -14 -14 -44 -38 -65 -55 -22 -16 -54 -44 -71 -62 -17 -18 -36 -33 -41 -33
-6 0 -24 -14 -41 -30 -18 -17 -36 -30 -42 -30 -5 0 -10 -5 -10 -10 0 -6 -8
-14 -17 -17 -10 -4 -29 -18 -43 -32 -14 -14 -48 -44 -75 -66 -28 -21 -53 -44
-57 -50 -4 -5 -8 -6 -8 -2 0 8 -15 -3 -56 -40 -14 -13 -31 -23 -38 -23 -8 0
-19 -7 -27 -16 -7 -8 -25 -22 -40 -30 -15 -8 -40 -25 -55 -39 -32 -30 -190
-135 -202 -135 -5 0 -21 -11 -35 -24 -14 -13 -28 -21 -31 -18 -3 3 -6 0 -6 -6
0 -7 -7 -12 -16 -12 -14 0 -81 -44 -94 -62 -3 -4 -21 -14 -40 -23 -19 -9 -62
-32 -95 -52 -33 -19 -85 -49 -115 -66 -30 -16 -74 -43 -98 -58 -24 -16 -45
-29 -48 -29 -8 0 -77 -33 -89 -42 -14 -11 -353 -180 -395 -197 -19 -7 -75 -33
-125 -56 -146 -69 -234 -105 -254 -105 -11 0 -22 -4 -25 -9 -3 -5 -61 -30
-128 -55 -68 -26 -150 -58 -183 -71 -123 -48 -283 -105 -370 -130 -49 -15
-103 -32 -120 -40 -33 -14 -174 -59 -190 -60 -5 0 -14 -3 -20 -6 -20 -11 -298
-90 -365 -104 -19 -4 -41 -11 -50 -15 -13 -7 -154 -44 -205 -54 -11 -2 -58
-13 -105 -24 -88 -21 -174 -41 -200 -46 -8 -1 -31 -6 -50 -10 -19 -4 -42 -8
-50 -10 -8 -2 -22 -5 -30 -8 -24 -9 -262 -53 -390 -73 -14 -2 -52 -9 -85 -15
-33 -6 -85 -15 -115 -20 -30 -4 -84 -13 -120 -18 -36 -6 -135 -18 -220 -27
-85 -9 -186 -21 -225 -26 -38 -6 -97 -12 -130 -15 -33 -2 -88 -6 -123 -9 -34
-3 -117 -8 -185 -11 -67 -3 -171 -10 -232 -14 -119 -9 -1065 -6 -1103 3 -12 4
-64 7 -115 7 -95 2 -368 25 -409 35 -13 3 -45 7 -73 9 -98 8 -181 18 -247 30
-43 8 -69 9 -71 3 -2 -6 -13 -5 -27 3 -14 7 -36 15 -50 16 -113 13 -138 16
-161 25 -14 6 -30 9 -35 8 -5 -1 -28 3 -52 10 -23 6 -47 9 -53 6 -5 -4 -16 -2
-24 5 -7 6 -19 10 -27 9 -7 -1 -26 1 -43 5 -113 25 -164 36 -191 40 -17 2 -41
9 -53 15 -12 7 -26 9 -32 5 -6 -4 -14 -2 -18 4 -3 6 -24 13 -46 15 -22 2 -53
10 -70 17 -16 7 -46 14 -65 17 -19 2 -39 8 -46 14 -7 5 -16 9 -20 7 -13 -3
-117 23 -130 33 -6 5 -31 12 -55 15 -24 4 -45 10 -47 15 -2 5 -14 9 -27 9 -13
0 -84 20 -157 45 -138 46 -302 102 -328 112 -8 4 -20 5 -27 4 -6 -1 -14 3 -18
9 -3 5 -15 10 -25 10 -11 0 -44 11 -74 25 -30 14 -57 25 -61 25 -10 0 -188 70
-245 97 -30 14 -73 32 -95 40 -22 8 -59 24 -82 34 -24 10 -49 19 -57 19 -7 0
-19 7 -26 15 -7 8 -19 15 -26 15 -8 0 -94 39 -192 86 -97 47 -229 111 -292
141 -63 30 -122 59 -130 64 -43 25 -200 105 -265 135 -22 10 -55 28 -73 41
-18 12 -63 37 -100 54 -37 18 -73 39 -80 46 -7 7 -20 13 -28 13 -8 0 -14 4
-14 9 0 5 -13 12 -29 16 -16 3 -32 13 -35 21 -3 8 -12 14 -21 14 -8 0 -15 5
-15 10 0 6 -4 10 -9 10 -5 0 -39 18 -75 40 -36 22 -68 40 -70 40 -3 0 -22 12
-43 26 -21 14 -47 30 -58 35 -11 5 -29 15 -39 21 -11 7 -58 38 -104 68 -47 30
-92 59 -101 65 -104 63 -147 91 -149 97 -2 5 -8 8 -13 8 -12 0 -148 87 -176
113 -12 11 -31 25 -42 31 -28 15 -148 99 -231 160 -38 28 -78 58 -90 66 -12 8
-33 25 -47 37 -15 12 -38 27 -52 34 -25 13 -97 67 -168 124 -39 32 -102 75
-109 75 -3 0 -21 16 -41 35 -20 19 -40 35 -44 35 -5 0 -21 11 -36 24 -60 53
-83 73 -134 111 -29 22 -66 52 -82 68 -16 15 -31 27 -33 27 -3 0 -17 11 -31
24 -15 14 -31 22 -36 19 -6 -3 -7 -2 -4 4 3 5 -4 16 -16 24 -12 8 -33 26 -48
42 -15 15 -29 27 -32 27 -3 0 -24 18 -46 40 -22 22 -44 40 -49 40 -5 0 -18 11
-28 25 -10 14 -24 25 -30 25 -6 0 -37 26 -69 58 -33 31 -64 57 -70 57 -5 1 -9
6 -8 13 2 7 -3 12 -10 12 -6 0 -40 29 -73 64 -34 34 -69 66 -79 69 -9 4 -13
11 -10 17 3 5 2 10 -2 10 -5 0 -32 23 -60 50 -28 28 -56 50 -61 50 -5 0 -27
19 -48 43 -88 97 -119 128 -130 126 -3 0 -14 10 -25 23 -49 58 -84 93 -90 91
-4 -1 -6 3 -5 10 0 7 -3 13 -7 14 -14 4 -129 127 -158 169 -15 23 -35 44 -44
47 -8 4 -15 12 -15 20 0 7 -31 45 -69 85 -39 40 -84 92 -102 117 -18 25 -36
45 -40 45 -4 0 -28 26 -52 57 -25 32 -54 69 -66 82 -12 13 -21 27 -21 30 -1
11 -68 81 -78 81 -5 0 -16 15 -23 33 -14 35 -61 87 -78 87 -6 0 -10 3 -9 8 4
15 -14 52 -25 52 -14 0 -37 33 -52 75 -6 17 -16 29 -23 28 -6 -2 -9 4 -5 13 3
9 0 14 -8 12 -7 -2 -18 7 -24 20 -5 12 -13 22 -18 22 -4 0 -5 5 -2 10 3 6 -1
10 -10 10 -9 0 -13 5 -10 10 3 6 1 10 -5 10 -6 0 -9 4 -6 8 3 5 -4 15 -15 22
-10 8 -19 21 -19 28 0 8 -6 12 -14 9 -10 -4 -13 -1 -10 7 3 8 1 17 -5 21 -6 3
-11 16 -12 28 0 12 -3 16 -6 10 -2 -7 -9 -13 -14 -13 -6 0 -7 5 -4 10 3 6 1
10 -4 10 -6 0 -11 5 -11 10 0 6 -12 22 -28 37 -15 14 -26 31 -24 38 1 8 -7 16
-18 20 -11 4 -28 24 -38 46 -9 21 -22 39 -29 39 -7 0 -13 7 -13 15 0 8 -5 15
-11 15 -5 0 -8 4 -5 9 3 5 -1 14 -9 21 -8 7 -15 18 -15 25 0 7 -17 32 -38 56
-21 24 -47 60 -58 79 -10 19 -23 38 -29 42 -5 4 -6 8 -1 8 5 0 -3 11 -18 25
-14 13 -26 29 -26 35 0 5 -8 18 -17 28 -20 19 -48 72 -45 85 1 4 -5 7 -14 7
-8 0 -13 4 -9 9 3 6 -3 14 -12 20 -10 6 -15 11 -11 11 10 0 -20 69 -40 91 -10
10 -19 33 -20 50 -1 18 -12 40 -24 51 -14 12 -17 18 -7 18 8 1 2 7 -13 15 -16
9 -29 27 -33 46 -4 16 -13 33 -21 36 -8 3 -14 14 -14 24 0 10 -5 18 -11 16 -6
-1 -13 6 -14 15 -2 10 -13 31 -25 48 -12 16 -17 30 -12 30 6 0 -2 13 -16 28
-15 16 -34 42 -42 58 -8 15 -23 36 -32 46 -10 10 -18 26 -18 35 0 9 -7 24 -16
34 -8 9 -17 24 -18 33 -1 8 -10 24 -20 35 -10 11 -16 27 -13 35 3 8 3 16 -1
18 -4 2 -22 33 -41 71 -19 37 -38 67 -43 67 -5 0 -6 10 -3 23 4 15 -3 31 -20
51 -14 16 -25 38 -25 49 0 13 -5 17 -15 13 -10 -3 -15 -1 -13 7 4 20 -12 67
-22 67 -6 0 -10 11 -10 25 0 14 -4 25 -10 25 -5 0 -10 8 -10 18 0 9 -9 28 -20
42 -11 14 -20 34 -20 45 -1 33 -12 65 -21 59 -8 -5 -13 9 -24 79 -3 20 -10 37
-15 37 -4 0 -12 15 -15 33 -4 17 -12 38 -17 45 -6 6 -7 12 -2 12 5 0 3 4 -4 9
-8 5 -15 20 -15 34 -1 14 -6 23 -11 19 -5 -3 -7 2 -3 11 3 8 -1 21 -8 27 -8 7
-12 16 -9 21 3 5 1 9 -4 9 -5 0 -9 7 -10 15 -1 8 -3 22 -4 30 -1 8 -5 15 -10
15 -5 0 -6 5 -3 10 3 6 1 10 -4 10 -6 0 -11 10 -11 23 0 12 -7 31 -15 41 -8
11 -15 27 -15 36 0 9 -9 34 -19 56 -11 22 -22 56 -26 77 -4 20 -11 37 -17 37
-5 0 -6 5 -3 10 3 5 3 16 -2 23 -4 6 -9 18 -10 25 -2 6 -5 20 -7 30 -3 9 -5
26 -5 36 -1 11 -4 16 -8 13 -9 -9 -35 44 -29 60 3 7 0 13 -7 13 -8 0 -8 3 2 9
10 7 11 13 2 30 -7 11 -9 21 -5 21 3 0 1 6 -5 14 -6 7 -8 22 -4 31 5 14 3 16
-7 10 -10 -6 -12 -4 -7 7 3 9 1 20 -4 25 -5 5 -10 22 -12 39 -2 16 -7 35 -11
42 -5 8 0 12 13 12 11 0 23 5 26 10 3 6 15 10 25 10 10 0 22 4 25 10 3 5 0 8
-7 5 -13 -4 -72 -18 -221 -51 -62 -14 -77 -21 -74 -33 3 -9 48 -162 100 -341
110 -373 309 -941 407 -1155 10 -22 48 -112 85 -200 36 -88 70 -169 75 -180 9
-20 154 -322 258 -535 31 -63 80 -160 110 -215 30 -55 73 -134 95 -175 89
-167 203 -370 250 -445 27 -44 101 -164 163 -267 168 -275 481 -717 717 -1011
522 -653 1214 -1313 2002 -1913 1804 -1372 3662 -2199 5480 -2440 880 -116
1786 -122 2740 -19 1500 164 3068 636 4266 1286 1046 567 2075 1443 2990 2544
96 116 185 226 199 245 13 19 27 37 30 40 4 3 26 32 51 65 24 33 49 65 54 71
99 114 566 783 697 999 30 50 87 144 128 210 316 519 644 1216 907 1925 239
644 338 994 437 1545 89 493 109 759 146 1945 13 413 13 1434 0 1870 -13 458
-31 843 -38 856 -4 7 -26 -7 -57 -37z"/>
<path d="M1994 3041 c-335 -82 -586 -329 -670 -658 -34 -134 -34 -292 0 -426
85 -333 345 -585 683 -661 112 -25 288 -22 406 8 298 76 535 296 637 591 11
32 28 111 37 174 15 111 15 121 -4 231 -64 369 -316 646 -670 736 -120 30
-307 33 -419 5z m363 -46 c185 -39 322 -114 450 -247 78 -82 134 -169 173
-269 51 -133 62 -199 58 -339 -4 -111 -8 -136 -40 -227 -48 -139 -105 -231
-207 -333 -100 -100 -219 -173 -352 -215 -154 -49 -394 -45 -524 10 -16 7 -50
21 -75 31 -162 67 -330 235 -414 415 -60 125 -71 184 -70 359 0 141 3 162 27
235 80 239 261 435 491 532 146 61 334 80 483 48z"/>
<path d="M3420 2780 l0 -40 75 0 75 0 0 -210 0 -210 55 0 55 0 0 210 0 210 75
0 75 0 0 40 0 40 -205 0 -205 0 0 -40z"/>
<path d="M3900 2571 l0 -251 55 0 55 0 0 95 0 95 40 0 40 0 47 -95 48 -95 52
0 c29 0 53 3 53 6 0 4 -23 50 -52 104 l-52 98 36 34 c42 39 53 71 45 134 -10
91 -58 117 -234 122 l-133 4 0 -251z m250 149 c27 -27 27 -83 -2 -110 -17 -15
-35 -20 -80 -20 l-58 0 0 75 0 75 60 0 c47 0 64 -4 80 -20z"/>
<path d="M4513 2803 c-4 -10 -46 -123 -94 -250 l-86 -233 53 0 53 0 17 55 18
55 91 0 91 0 18 -55 17 -55 53 0 54 0 -53 143 c-29 78 -71 189 -92 247 l-40
105 -47 3 c-37 3 -48 0 -53 -15z m86 -206 l30 -87 -64 0 -64 0 31 91 c17 49
32 88 34 86 2 -2 17 -43 33 -90z"/>
<path d="M4860 2570 l0 -250 55 0 55 0 2 159 3 159 95 -159 95 -158 53 -1 52
0 0 250 0 250 -50 0 -50 0 0 -161 c0 -88 -4 -158 -9 -155 -4 3 -50 75 -101
161 l-92 155 -54 0 -54 0 0 -250z"/>
<path d="M5477 2809 c-45 -13 -93 -56 -103 -93 -18 -73 30 -142 125 -176 99
-35 126 -52 129 -83 5 -42 -22 -67 -73 -67 -48 0 -95 30 -95 61 0 16 -7 19
-54 19 l-54 0 10 -37 c14 -55 54 -91 117 -110 94 -27 207 0 236 58 8 15 15 49
15 75 0 40 -5 51 -37 84 -26 25 -60 44 -105 59 -111 37 -143 76 -98 121 40 40
140 15 140 -35 0 -11 12 -15 50 -15 44 0 50 2 50 21 0 35 -37 85 -76 104 -44
21 -127 27 -177 14z"/>
<path d="M5820 2570 l0 -250 55 0 55 0 0 89 0 88 83 5 c143 9 191 53 184 167
-3 58 -6 66 -39 97 -48 43 -91 54 -225 54 l-113 0 0 -250z m254 149 c20 -16
26 -29 26 -60 0 -60 -25 -79 -105 -79 l-65 0 0 80 0 80 59 0 c44 0 65 -5 85
-21z"/>
<path d="M6363 2803 c-4 -10 -46 -123 -94 -250 l-86 -233 53 0 53 0 17 55 18
55 91 0 91 0 18 -55 17 -55 53 0 54 0 -53 143 c-29 78 -71 189 -92 247 l-40
105 -47 3 c-37 3 -48 0 -53 -15z m86 -206 l30 -87 -64 0 -64 0 31 91 c17 49
32 88 34 86 2 -2 17 -43 33 -90z"/>
<path d="M6710 2571 l0 -251 55 0 55 0 0 95 0 95 40 0 40 0 47 -95 48 -95 52
0 c29 0 53 3 53 6 0 4 -23 50 -52 104 l-52 98 36 34 c42 39 53 71 45 134 -10
91 -58 117 -234 122 l-133 4 0 -251z m250 149 c27 -27 27 -83 -2 -110 -17 -15
-35 -20 -80 -20 l-58 0 0 75 0 75 60 0 c47 0 64 -4 80 -20z"/>
<path d="M7180 2570 l0 -250 170 0 170 0 0 40 0 40 -115 0 -115 0 0 70 0 70
95 0 95 0 0 40 0 40 -95 0 -95 0 0 60 0 60 115 0 115 0 0 40 0 40 -170 0 -170
0 0 -250z"/>
<path d="M7590 2570 l0 -250 55 0 55 0 2 159 3 159 95 -159 95 -158 53 -1 52
0 0 250 0 250 -50 0 -50 0 0 -161 c0 -88 -4 -158 -9 -155 -4 3 -50 75 -101
161 l-92 155 -54 0 -54 0 0 -250z"/>
<path d="M8060 2780 l0 -40 75 0 75 0 0 -210 0 -210 55 0 55 0 0 210 0 210 75
0 75 0 0 40 0 40 -205 0 -205 0 0 -40z"/>
<path d="M3460 1716 l0 -246 123 0 c140 0 176 12 215 70 34 50 26 104 -23 148
l-36 33 25 20 c14 11 31 37 37 59 10 32 9 44 -7 76 -31 64 -70 78 -211 83
l-123 3 0 -246z m238 158 c26 -18 30 -74 7 -98 -19 -19 -68 -29 -120 -24 l-40
3 -3 68 -3 67 68 0 c46 0 76 -5 91 -16z m15 -212 c25 -26 27 -75 2 -102 -15
-17 -31 -20 -97 -20 l-78 0 0 68 c0 38 3 72 8 76 4 5 38 6 75 3 52 -3 74 -10
90 -25z"/>
<path d="M4045 1948 c-3 -7 -43 -118 -89 -245 l-84 -233 43 0 c43 0 44 0 60
50 l17 50 102 0 102 0 15 -47 c14 -46 16 -48 57 -51 23 -2 42 1 42 6 0 5 -38
114 -84 243 l-84 234 -46 3 c-31 2 -48 -1 -51 -10z m84 -189 c16 -46 32 -92
36 -101 6 -16 0 -18 -70 -18 -88 0 -84 -15 -33 128 17 46 32 81 34 79 2 -2 17
-42 33 -88z"/>
<path d="M4505 1936 c-90 -41 -137 -119 -137 -222 -1 -76 26 -138 77 -183 53
-46 99 -63 170 -63 94 0 174 43 211 115 l15 27 -50 0 c-40 0 -52 -4 -61 -20
-16 -30 -63 -50 -117 -50 -105 0 -168 73 -161 187 4 70 23 103 78 141 57 38
173 22 201 -29 7 -15 21 -19 60 -19 l50 0 -16 29 c-51 99 -205 141 -320 87z"/>
<path d="M4930 1715 l0 -245 40 0 40 0 0 108 1 107 62 -70 c139 -157 127 -147
180 -143 l47 3 -105 120 -105 119 23 26 c25 27 152 174 176 203 13 16 11 17
-36 17 l-50 0 -94 -111 -94 -111 -3 111 -3 111 -39 0 -40 0 0 -245z"/>
<path d="M5495 1936 c-90 -41 -137 -119 -137 -222 -1 -76 26 -138 77 -183 53
-46 99 -63 171 -63 108 -1 199 67 230 169 8 25 12 55 10 66 -3 12 -5 25 -5 30
-1 4 -59 7 -131 7 l-130 0 0 -35 0 -35 91 0 c89 0 90 0 84 -22 -13 -42 -54
-86 -91 -98 -47 -16 -119 -8 -152 17 -54 40 -67 69 -67 147 0 65 3 77 29 110
31 41 78 66 125 66 42 0 109 -29 122 -51 7 -15 21 -19 60 -19 l50 0 -16 29
c-51 99 -205 141 -320 87z"/>
<path d="M5920 1716 l0 -246 40 0 40 0 0 93 c0 52 2 96 5 99 3 2 18 3 34 0 25
-3 37 -18 82 -98 l53 -94 49 0 c26 0 46 3 44 8 -3 4 -30 49 -61 99 l-56 93 34
14 c65 27 97 127 61 196 -8 15 -31 39 -52 52 -33 20 -53 23 -155 27 l-118 3 0
-246z m235 149 c16 -15 25 -36 25 -55 0 -19 -9 -40 -25 -55 -21 -22 -33 -25
-90 -25 l-65 0 0 80 0 80 65 0 c57 0 69 -3 90 -25z"/>
<path d="M6475 1936 c-89 -41 -137 -118 -137 -221 0 -72 18 -119 67 -173 84
-94 247 -103 342 -19 81 71 106 201 59 303 -55 118 -206 169 -331 110z m195
-68 c55 -38 74 -71 78 -141 3 -51 -1 -70 -20 -106 -59 -111 -227 -112 -285 -1
-50 95 -14 224 72 260 41 18 120 11 155 -12z"/>
<path d="M6912 1773 c3 -177 4 -190 27 -226 31 -51 85 -77 159 -77 76 0 123
20 159 67 l28 36 3 194 3 193 -40 0 -41 0 0 -178 c0 -198 -4 -212 -67 -238
-41 -18 -100 -5 -129 27 -17 19 -19 41 -22 205 l-3 184 -40 0 -41 0 4 -187z"/>
<path d="M7390 1715 l0 -245 40 0 40 0 0 183 0 182 122 -182 121 -183 39 0 38
0 0 245 0 245 -40 0 -40 0 -2 -176 -3 -177 -118 177 -117 176 -40 0 -40 0 0
-245z"/>
<path d="M7900 1716 l0 -246 103 0 c117 0 181 15 233 55 102 78 111 266 17
357 -57 55 -100 69 -235 76 l-118 5 0 -247z m267 148 c48 -36 68 -81 68 -154
0 -117 -57 -171 -184 -174 l-66 -1 -3 179 -2 178 79 -3 c61 -3 86 -9 108 -25z"/>
</g>
</svg>
